{
	"asset":{
		"generator":"Khronos glTF Blender I/O v3.5.30",
		"version":"2.0"
	},
	"scene":0,
	"scenes":[
		{
			"extras":{
				"b_export":1,
				"export_path":"C:\\Users\\saqib\\Desktop\\Potato\\",
				"s_project_name":"Items",
				"s_output":"exporting..."
			},
			"name":"Scene",
			"nodes":[
				0
			]
		}
	],
	"nodes":[
		{
			"extras":{
				"currentUVSet":"map1"
			},
			"mesh":0,
			"name":"Brille_Rot",
			"rotation":[
				0.7071067690849304,
				0,
				0,
				0.7071068286895752
			],
			"scale":[
				0.15600988268852234,
				0.15600988268852234,
				0.15600988268852234
			]
		}
	],
	"materials":[
		{
			"doubleSided":true,
			"name":"phong1",
			"pbrMetallicRoughness":{
				"baseColorFactor":[
					0.6420000195503235,
					0,
					0,
					1
				],
				"metallicFactor":0.5,
				"roughnessFactor":0.5527864098548889
			}
		}
	],
	"meshes":[
		{
			"name":"Mesh.002",
			"primitives":[
				{
					"attributes":{
						"POSITION":0,
						"TEXCOORD_0":1,
						"NORMAL":2,
						"TANGENT":3
					},
					"indices":4,
					"material":0
				}
			]
		}
	],
	"accessors":[
		{
			"bufferView":0,
			"componentType":5126,
			"count":1098,
			"max":[
				2.6049726009368896,
				1.9844428300857544,
				0.9210102558135986
			],
			"min":[
				-2.6049726009368896,
				-0.32792162895202637,
				-0.9022654294967651
			],
			"type":"VEC3"
		},
		{
			"bufferView":1,
			"componentType":5126,
			"count":1098,
			"type":"VEC2"
		},
		{
			"bufferView":2,
			"componentType":5126,
			"count":1098,
			"type":"VEC3"
		},
		{
			"bufferView":3,
			"componentType":5126,
			"count":1098,
			"type":"VEC4"
		},
		{
			"bufferView":4,
			"componentType":5123,
			"count":5712,
			"type":"SCALAR"
		}
	],
	"bufferViews":[
		{
			"buffer":0,
			"byteLength":13176,
			"byteOffset":0,
			"target":34962
		},
		{
			"buffer":0,
			"byteLength":8784,
			"byteOffset":13176,
			"target":34962
		},
		{
			"buffer":0,
			"byteLength":13176,
			"byteOffset":21960,
			"target":34962
		},
		{
			"buffer":0,
			"byteLength":17568,
			"byteOffset":35136,
			"target":34962
		},
		{
			"buffer":0,
			"byteLength":11424,
			"byteOffset":52704,
			"target":34963
		}
	],
	"buffers":[
		{
			"byteLength":64128,
			"uri":"data:application/octet-stream;base64,"
		}
	]
}
