{
	"asset":{
		"generator":"Khronos glTF Blender I/O v3.5.30",
		"version":"2.0"
	},
	"scene":0,
	"scenes":[
		{
			"extras":{
				"b_settings":1,
				"b_renderer":1,
				"b_player":1,
				"b_interactive":1,
				"b_export":1,
				"export_path":"/Users/Patricia/Desktop/",
				"s_project_name":"raum_3.5.1",
				"b_export_single_model":1,
				"s_output":"exporting..."
			},
			"name":"Scene",
			"nodes":[
				0,
				1,
				2
			]
		}
	],
	"nodes":[
		{
			"mesh":0,
			"name":"Pedestal_1.5x1.2x1.2",
			"scale":[
				1.5,
				1.2000000476837158,
				1.2000000476837158
			],
			"translation":[
				-15.163432121276855,
				1.7467411756515503,
				-2.8106865882873535
			]
		},
		{
			"mesh":1,
			"name":"Pedestal_6x1.2x1.2",
			"scale":[
				6,
				1.2000000476837158,
				1.2000000476837158
			],
			"translation":[
				-15.163432121276855,
				1.7467411756515503,
				5.979684352874756
			]
		},
		{
			"mesh":2,
			"name":"Raum_10x10x3",
			"scale":[
				10,
				5,
				10
			],
			"translation":[
				-14.998482704162598,
				5.050833702087402,
				-2.0875377655029297
			]
		}
	],
	"materials":[
		{
			"doubleSided":true,
			"name":"Material.002",
			"pbrMetallicRoughness":{
				"baseColorFactor":[
					0.48223960399627686,
					0.3043035566806793,
					0.8049801588058472,
					1
				],
				"metallicFactor":0,
				"roughnessFactor":0.5
			}
		},
		{
			"doubleSided":true,
			"name":"Material.001",
			"pbrMetallicRoughness":{
				"baseColorFactor":[
					0.7829713225364685,
					0.4117635488510132,
					0.8006829619407654,
					1
				],
				"metallicFactor":0,
				"roughnessFactor":0.5
			}
		}
	],
	"meshes":[
		{
			"name":"Cube.001",
			"primitives":[
				{
					"attributes":{
						"POSITION":0,
						"TEXCOORD_0":1,
						"NORMAL":2,
						"TANGENT":3
					},
					"indices":4,
					"material":0
				}
			]
		},
		{
			"name":"Cube.002",
			"primitives":[
				{
					"attributes":{
						"POSITION":5,
						"TEXCOORD_0":6,
						"NORMAL":7,
						"TANGENT":8
					},
					"indices":4,
					"material":0
				}
			]
		},
		{
			"name":"Cube.003",
			"primitives":[
				{
					"attributes":{
						"POSITION":9,
						"TEXCOORD_0":10,
						"NORMAL":11,
						"TANGENT":12
					},
					"indices":13,
					"material":1
				}
			]
		}
	],
	"accessors":[
		{
			"bufferView":0,
			"componentType":5126,
			"count":24,
			"max":[
				1,
				1,
				1
			],
			"min":[
				-1,
				-1,
				-1
			],
			"type":"VEC3"
		},
		{
			"bufferView":1,
			"componentType":5126,
			"count":24,
			"type":"VEC2"
		},
		{
			"bufferView":2,
			"componentType":5126,
			"count":24,
			"type":"VEC3"
		},
		{
			"bufferView":3,
			"componentType":5126,
			"count":24,
			"type":"VEC4"
		},
		{
			"bufferView":4,
			"componentType":5123,
			"count":36,
			"type":"SCALAR"
		},
		{
			"bufferView":5,
			"componentType":5126,
			"count":24,
			"max":[
				1,
				1,
				1
			],
			"min":[
				-1,
				-1,
				-1
			],
			"type":"VEC3"
		},
		{
			"bufferView":6,
			"componentType":5126,
			"count":24,
			"type":"VEC2"
		},
		{
			"bufferView":7,
			"componentType":5126,
			"count":24,
			"type":"VEC3"
		},
		{
			"bufferView":8,
			"componentType":5126,
			"count":24,
			"type":"VEC4"
		},
		{
			"bufferView":9,
			"componentType":5126,
			"count":52,
			"max":[
				1,
				1,
				1
			],
			"min":[
				-1,
				-1,
				-1
			],
			"type":"VEC3"
		},
		{
			"bufferView":10,
			"componentType":5126,
			"count":52,
			"type":"VEC2"
		},
		{
			"bufferView":11,
			"componentType":5126,
			"count":52,
			"type":"VEC3"
		},
		{
			"bufferView":12,
			"componentType":5126,
			"count":52,
			"type":"VEC4"
		},
		{
			"bufferView":13,
			"componentType":5123,
			"count":84,
			"type":"SCALAR"
		}
	],
	"bufferViews":[
		{
			"buffer":0,
			"byteLength":288,
			"byteOffset":0,
			"target":34962
		},
		{
			"buffer":0,
			"byteLength":192,
			"byteOffset":288,
			"target":34962
		},
		{
			"buffer":0,
			"byteLength":288,
			"byteOffset":480,
			"target":34962
		},
		{
			"buffer":0,
			"byteLength":384,
			"byteOffset":768,
			"target":34962
		},
		{
			"buffer":0,
			"byteLength":72,
			"byteOffset":1152,
			"target":34963
		},
		{
			"buffer":0,
			"byteLength":288,
			"byteOffset":1224,
			"target":34962
		},
		{
			"buffer":0,
			"byteLength":192,
			"byteOffset":1512,
			"target":34962
		},
		{
			"buffer":0,
			"byteLength":288,
			"byteOffset":1704,
			"target":34962
		},
		{
			"buffer":0,
			"byteLength":384,
			"byteOffset":1992,
			"target":34962
		},
		{
			"buffer":0,
			"byteLength":624,
			"byteOffset":2376,
			"target":34962
		},
		{
			"buffer":0,
			"byteLength":416,
			"byteOffset":3000,
			"target":34962
		},
		{
			"buffer":0,
			"byteLength":624,
			"byteOffset":3416,
			"target":34962
		},
		{
			"buffer":0,
			"byteLength":832,
			"byteOffset":4040,
			"target":34962
		},
		{
			"buffer":0,
			"byteLength":168,
			"byteOffset":4872,
			"target":34963
		}
	],
	"buffers":[
		{
			"byteLength":5040,
			"uri":"data:application/octet-stream;base64,"
		}
	]
}
