{
	"asset":{
		"generator":"Khronos glTF Blender I/O v3.5.30",
		"version":"2.0"
	},
	"scene":0,
	"scenes":[
		{
			"extras":{
				"b_export":1,
				"export_path":"C:\\Users\\saqib\\Desktop\\Potato\\",
				"s_project_name":"Items-D",
				"s_output":"exporting..."
			},
			"name":"Scene",
			"nodes":[
				0
			]
		}
	],
	"nodes":[
		{
			"extras":{
				"currentUVSet":"map1"
			},
			"mesh":0,
			"name":"Couch_smol",
			"rotation":[
				0.7071068286895752,
				0,
				0,
				0.7071068286895752
			],
			"scale":[
				0.1836530715227127,
				0.1836530715227127,
				0.1836530715227127
			],
			"translation":[
				0.19751699268817902,
				0.04014665633440018,
				0
			]
		}
	],
	"materials":[
		{
			"doubleSided":true,
			"name":"lambert6",
			"pbrMetallicRoughness":{
				"baseColorFactor":[
					0.07429999858140945,
					0.04569999873638153,
					0.02500000037252903,
					1
				],
				"metallicFactor":0,
				"roughnessFactor":0.5527864098548889
			}
		},
		{
			"doubleSided":true,
			"name":"standardSurface1.001",
			"pbrMetallicRoughness":{
				"metallicFactor":0,
				"roughnessFactor":0.5527864098548889
			}
		}
	],
	"meshes":[
		{
			"name":"Mesh.016",
			"primitives":[
				{
					"attributes":{
						"POSITION":0,
						"TEXCOORD_0":1,
						"NORMAL":2,
						"TANGENT":3
					},
					"indices":4,
					"material":0
				},
				{
					"attributes":{
						"POSITION":5,
						"TEXCOORD_0":6,
						"NORMAL":7,
						"TANGENT":8
					},
					"indices":9,
					"material":1
				}
			]
		}
	],
	"accessors":[
		{
			"bufferView":0,
			"componentType":5126,
			"count":374,
			"max":[
				4.090293884277344,
				4.687392711639404,
				3.0417256355285645
			],
			"min":[
				-5.044447898864746,
				-3.236086368560791,
				1.0026726722717285
			],
			"type":"VEC3"
		},
		{
			"bufferView":1,
			"componentType":5126,
			"count":374,
			"type":"VEC2"
		},
		{
			"bufferView":2,
			"componentType":5126,
			"count":374,
			"type":"VEC3"
		},
		{
			"bufferView":3,
			"componentType":5126,
			"count":374,
			"type":"VEC4"
		},
		{
			"bufferView":4,
			"componentType":5123,
			"count":1068,
			"type":"SCALAR"
		},
		{
			"bufferView":5,
			"componentType":5126,
			"count":641,
			"max":[
				4.090293884277344,
				4.795426845550537,
				1.0364890098571777
			],
			"min":[
				-5.06313419342041,
				-3.2539420127868652,
				-3.3456063270568848
			],
			"type":"VEC3"
		},
		{
			"bufferView":6,
			"componentType":5126,
			"count":641,
			"type":"VEC2"
		},
		{
			"bufferView":7,
			"componentType":5126,
			"count":641,
			"type":"VEC3"
		},
		{
			"bufferView":8,
			"componentType":5126,
			"count":641,
			"type":"VEC4"
		},
		{
			"bufferView":9,
			"componentType":5123,
			"count":2934,
			"type":"SCALAR"
		}
	],
	"bufferViews":[
		{
			"buffer":0,
			"byteLength":4488,
			"byteOffset":0,
			"target":34962
		},
		{
			"buffer":0,
			"byteLength":2992,
			"byteOffset":4488,
			"target":34962
		},
		{
			"buffer":0,
			"byteLength":4488,
			"byteOffset":7480,
			"target":34962
		},
		{
			"buffer":0,
			"byteLength":5984,
			"byteOffset":11968,
			"target":34962
		},
		{
			"buffer":0,
			"byteLength":2136,
			"byteOffset":17952,
			"target":34963
		},
		{
			"buffer":0,
			"byteLength":7692,
			"byteOffset":20088,
			"target":34962
		},
		{
			"buffer":0,
			"byteLength":5128,
			"byteOffset":27780,
			"target":34962
		},
		{
			"buffer":0,
			"byteLength":7692,
			"byteOffset":32908,
			"target":34962
		},
		{
			"buffer":0,
			"byteLength":10256,
			"byteOffset":40600,
			"target":34962
		},
		{
			"buffer":0,
			"byteLength":5868,
			"byteOffset":50856,
			"target":34963
		}
	],
	"buffers":[
		{
			"byteLength":56724,
			"uri":"data:application/octet-stream;base64,"
		}
	]
}
