{
	"asset":{
		"generator":"Khronos glTF Blender I/O v3.5.30",
		"version":"2.0"
	},
	"scene":0,
	"scenes":[
		{
			"extras":{
				"b_export":1,
				"export_path":"C:\\Users\\saqib\\Desktop\\Potato\\",
				"s_project_name":"Items-D",
				"s_output":"exporting..."
			},
			"name":"Scene",
			"nodes":[
				0
			]
		}
	],
	"nodes":[
		{
			"extras":{
				"currentUVSet":"map1"
			},
			"mesh":0,
			"name":"Couch",
			"rotation":[
				0.7071068286895752,
				0,
				0,
				0.7071068286895752
			],
			"scale":[
				0.1836530715227127,
				0.1836530715227127,
				0.1836530715227127
			],
			"translation":[
				0.19751699268817902,
				0.04014665633440018,
				0
			]
		}
	],
	"materials":[
		{
			"doubleSided":true,
			"name":"standardSurface1.001",
			"pbrMetallicRoughness":{
				"metallicFactor":0,
				"roughnessFactor":0.5527864098548889
			}
		},
		{
			"doubleSided":true,
			"name":"lambert6",
			"pbrMetallicRoughness":{
				"baseColorFactor":[
					0.07429999858140945,
					0.04569999873638153,
					0.02500000037252903,
					1
				],
				"metallicFactor":0,
				"roughnessFactor":0.5527864098548889
			}
		}
	],
	"meshes":[
		{
			"name":"Mesh.017",
			"primitives":[
				{
					"attributes":{
						"POSITION":0,
						"TEXCOORD_0":1,
						"NORMAL":2,
						"TANGENT":3
					},
					"indices":4,
					"material":0
				},
				{
					"attributes":{
						"POSITION":5,
						"TEXCOORD_0":6,
						"NORMAL":7,
						"TANGENT":8
					},
					"indices":9,
					"material":1
				}
			]
		}
	],
	"accessors":[
		{
			"bufferView":0,
			"componentType":5126,
			"count":1218,
			"max":[
				8.009513854980469,
				4.845239162445068,
				1.1864724159240723
			],
			"min":[
				-9.045172691345215,
				-3.225417137145996,
				-3.1956229209899902
			],
			"type":"VEC3"
		},
		{
			"bufferView":1,
			"componentType":5126,
			"count":1218,
			"type":"VEC2"
		},
		{
			"bufferView":2,
			"componentType":5126,
			"count":1218,
			"type":"VEC3"
		},
		{
			"bufferView":3,
			"componentType":5126,
			"count":1218,
			"type":"VEC4"
		},
		{
			"bufferView":4,
			"componentType":5123,
			"count":4308,
			"type":"SCALAR"
		},
		{
			"bufferView":5,
			"componentType":5126,
			"count":608,
			"max":[
				8.019365310668945,
				4.715918064117432,
				3.191709041595459
			],
			"min":[
				-9.040907859802246,
				-3.2075605392456055,
				1.152656078338623
			],
			"type":"VEC3"
		},
		{
			"bufferView":6,
			"componentType":5126,
			"count":608,
			"type":"VEC2"
		},
		{
			"bufferView":7,
			"componentType":5126,
			"count":608,
			"type":"VEC3"
		},
		{
			"bufferView":8,
			"componentType":5126,
			"count":608,
			"type":"VEC4"
		},
		{
			"bufferView":9,
			"componentType":5123,
			"count":1068,
			"type":"SCALAR"
		}
	],
	"bufferViews":[
		{
			"buffer":0,
			"byteLength":14616,
			"byteOffset":0,
			"target":34962
		},
		{
			"buffer":0,
			"byteLength":9744,
			"byteOffset":14616,
			"target":34962
		},
		{
			"buffer":0,
			"byteLength":14616,
			"byteOffset":24360,
			"target":34962
		},
		{
			"buffer":0,
			"byteLength":19488,
			"byteOffset":38976,
			"target":34962
		},
		{
			"buffer":0,
			"byteLength":8616,
			"byteOffset":58464,
			"target":34963
		},
		{
			"buffer":0,
			"byteLength":7296,
			"byteOffset":67080,
			"target":34962
		},
		{
			"buffer":0,
			"byteLength":4864,
			"byteOffset":74376,
			"target":34962
		},
		{
			"buffer":0,
			"byteLength":7296,
			"byteOffset":79240,
			"target":34962
		},
		{
			"buffer":0,
			"byteLength":9728,
			"byteOffset":86536,
			"target":34962
		},
		{
			"buffer":0,
			"byteLength":2136,
			"byteOffset":96264,
			"target":34963
		}
	],
	"buffers":[
		{
			"byteLength":98400,
			"uri":"data:application/octet-stream;base64,"
		}
	]
}
