{
	"asset":{
		"generator":"Khronos glTF Blender I/O v3.5.30",
		"version":"2.0"
	},
	"scene":0,
	"scenes":[
		{
			"extras":{
				"b_export":1,
				"export_path":"C:\\Users\\saqib\\Desktop\\Potato\\",
				"s_project_name":"Items",
				"s_output":"exporting..."
			},
			"name":"Scene",
			"nodes":[
				0
			]
		}
	],
	"nodes":[
		{
			"extras":{
				"currentUVSet":"map1"
			},
			"mesh":0,
			"name":"Hut_A",
			"rotation":[
				0.7071068286895752,
				0,
				0,
				0.7071068286895752
			],
			"scale":[
				0.16623204946517944,
				0.16623204946517944,
				0.16623204946517944
			]
		}
	],
	"materials":[
		{
			"doubleSided":true,
			"name":"lambert3",
			"pbrMetallicRoughness":{
				"baseColorFactor":[
					0.05829999968409538,
					0.05829999968409538,
					0.05829999968409538,
					1
				],
				"metallicFactor":0,
				"roughnessFactor":0.5527864098548889
			}
		},
		{
			"doubleSided":true,
			"name":"blinn2",
			"pbrMetallicRoughness":{
				"baseColorFactor":[
					0.5,
					0.5,
					0.5,
					1
				],
				"metallicFactor":0.5,
				"roughnessFactor":0.7487671971321106
			}
		}
	],
	"meshes":[
		{
			"name":"Mesh.001",
			"primitives":[
				{
					"attributes":{
						"POSITION":0,
						"TEXCOORD_0":1,
						"NORMAL":2,
						"TANGENT":3
					},
					"indices":4,
					"material":0
				},
				{
					"attributes":{
						"POSITION":5,
						"TEXCOORD_0":6,
						"NORMAL":7,
						"TANGENT":8
					},
					"indices":9,
					"material":1
				}
			]
		}
	],
	"accessors":[
		{
			"bufferView":0,
			"componentType":5126,
			"count":1220,
			"max":[
				1.6580488681793213,
				1.6580489873886108,
				0.6719480752944946
			],
			"min":[
				-1.6580493450164795,
				-1.658049464225769,
				-1.6106330156326294
			],
			"type":"VEC3"
		},
		{
			"bufferView":1,
			"componentType":5126,
			"count":1220,
			"type":"VEC2"
		},
		{
			"bufferView":2,
			"componentType":5126,
			"count":1220,
			"type":"VEC3"
		},
		{
			"bufferView":3,
			"componentType":5126,
			"count":1220,
			"type":"VEC4"
		},
		{
			"bufferView":4,
			"componentType":5123,
			"count":6480,
			"type":"SCALAR"
		},
		{
			"bufferView":5,
			"componentType":5126,
			"count":287,
			"max":[
				1.0521262884140015,
				1.0521267652511597,
				0.47569790482521057
			],
			"min":[
				-1.0521268844604492,
				-1.0521270036697388,
				0.0385529100894928
			],
			"type":"VEC3"
		},
		{
			"bufferView":6,
			"componentType":5126,
			"count":287,
			"type":"VEC2"
		},
		{
			"bufferView":7,
			"componentType":5126,
			"count":287,
			"type":"VEC3"
		},
		{
			"bufferView":8,
			"componentType":5126,
			"count":287,
			"type":"VEC4"
		},
		{
			"bufferView":9,
			"componentType":5123,
			"count":1440,
			"type":"SCALAR"
		}
	],
	"bufferViews":[
		{
			"buffer":0,
			"byteLength":14640,
			"byteOffset":0,
			"target":34962
		},
		{
			"buffer":0,
			"byteLength":9760,
			"byteOffset":14640,
			"target":34962
		},
		{
			"buffer":0,
			"byteLength":14640,
			"byteOffset":24400,
			"target":34962
		},
		{
			"buffer":0,
			"byteLength":19520,
			"byteOffset":39040,
			"target":34962
		},
		{
			"buffer":0,
			"byteLength":12960,
			"byteOffset":58560,
			"target":34963
		},
		{
			"buffer":0,
			"byteLength":3444,
			"byteOffset":71520,
			"target":34962
		},
		{
			"buffer":0,
			"byteLength":2296,
			"byteOffset":74964,
			"target":34962
		},
		{
			"buffer":0,
			"byteLength":3444,
			"byteOffset":77260,
			"target":34962
		},
		{
			"buffer":0,
			"byteLength":4592,
			"byteOffset":80704,
			"target":34962
		},
		{
			"buffer":0,
			"byteLength":2880,
			"byteOffset":85296,
			"target":34963
		}
	],
	"buffers":[
		{
			"byteLength":88176,
			"uri":"data:application/octet-stream;base64,"
		}
	]
}
