{
	"asset":{
		"generator":"Khronos glTF Blender I/O v3.5.30",
		"version":"2.0"
	},
	"scene":0,
	"scenes":[
		{
			"extras":{
				"b_export":1,
				"export_path":"C:\\Users\\saqib\\Desktop\\Potato\\",
				"s_project_name":"Items-B",
				"s_output":"exporting..."
			},
			"name":"Scene",
			"nodes":[
				0
			]
		}
	],
	"nodes":[
		{
			"extras":{
				"currentUVSet":"map1"
			},
			"mesh":0,
			"name":"pSphere1.001",
			"rotation":[
				0.7071068286895752,
				0,
				0,
				0.7071068286895752
			],
			"scale":[
				0.2358476221561432,
				0.2358476221561432,
				0.2358476221561432
			]
		}
	],
	"materials":[
		{
			"doubleSided":true,
			"name":"lambert2.001",
			"pbrMetallicRoughness":{
				"baseColorFactor":[
					0.5,
					0.5,
					0.5,
					1
				],
				"metallicFactor":0,
				"roughnessFactor":0.5527864098548889
			}
		},
		{
			"doubleSided":true,
			"name":"phong3.001",
			"pbrMetallicRoughness":{
				"baseColorFactor":[
					0.024500012397766113,
					0.5,
					0.12277796864509583,
					1
				],
				"metallicFactor":0.5,
				"roughnessFactor":0.5527864098548889
			}
		}
	],
	"meshes":[
		{
			"name":"Mesh.005",
			"primitives":[
				{
					"attributes":{
						"POSITION":0,
						"TEXCOORD_0":1,
						"NORMAL":2,
						"TANGENT":3
					},
					"indices":4,
					"material":0
				},
				{
					"attributes":{
						"POSITION":5,
						"TEXCOORD_0":6,
						"NORMAL":7,
						"TANGENT":8
					},
					"indices":9,
					"material":1
				}
			]
		}
	],
	"accessors":[
		{
			"bufferView":0,
			"componentType":5126,
			"count":2246,
			"max":[
				0.985201358795166,
				1.6374707221984863,
				0.44332176446914673
			],
			"min":[
				-0.985201358795166,
				-1.0974689722061157,
				-0.5556517839431763
			],
			"type":"VEC3"
		},
		{
			"bufferView":1,
			"componentType":5126,
			"count":2246,
			"type":"VEC2"
		},
		{
			"bufferView":2,
			"componentType":5126,
			"count":2246,
			"type":"VEC3"
		},
		{
			"bufferView":3,
			"componentType":5126,
			"count":2246,
			"type":"VEC4"
		},
		{
			"bufferView":4,
			"componentType":5123,
			"count":8928,
			"type":"SCALAR"
		},
		{
			"bufferView":5,
			"componentType":5126,
			"count":437,
			"max":[
				0.9656955599784851,
				0.4255443811416626,
				0.36753594875335693
			],
			"min":[
				-0.9656956791877747,
				-0.8787161111831665,
				-0.5238038897514343
			],
			"type":"VEC3"
		},
		{
			"bufferView":6,
			"componentType":5126,
			"count":437,
			"type":"VEC2"
		},
		{
			"bufferView":7,
			"componentType":5126,
			"count":437,
			"type":"VEC3"
		},
		{
			"bufferView":8,
			"componentType":5126,
			"count":437,
			"type":"VEC4"
		},
		{
			"bufferView":9,
			"componentType":5123,
			"count":2160,
			"type":"SCALAR"
		}
	],
	"bufferViews":[
		{
			"buffer":0,
			"byteLength":26952,
			"byteOffset":0,
			"target":34962
		},
		{
			"buffer":0,
			"byteLength":17968,
			"byteOffset":26952,
			"target":34962
		},
		{
			"buffer":0,
			"byteLength":26952,
			"byteOffset":44920,
			"target":34962
		},
		{
			"buffer":0,
			"byteLength":35936,
			"byteOffset":71872,
			"target":34962
		},
		{
			"buffer":0,
			"byteLength":17856,
			"byteOffset":107808,
			"target":34963
		},
		{
			"buffer":0,
			"byteLength":5244,
			"byteOffset":125664,
			"target":34962
		},
		{
			"buffer":0,
			"byteLength":3496,
			"byteOffset":130908,
			"target":34962
		},
		{
			"buffer":0,
			"byteLength":5244,
			"byteOffset":134404,
			"target":34962
		},
		{
			"buffer":0,
			"byteLength":6992,
			"byteOffset":139648,
			"target":34962
		},
		{
			"buffer":0,
			"byteLength":4320,
			"byteOffset":146640,
			"target":34963
		}
	],
	"buffers":[
		{
			"byteLength":150960,
			"uri":"data:application/octet-stream;base64,"
		}
	]
}
