{
	"asset":{
		"generator":"Khronos glTF Blender I/O v3.5.30",
		"version":"2.0"
	},
	"scene":0,
	"scenes":[
		{
			"extras":{
				"b_export":1,
				"export_path":"C:\\Users\\saqib\\Desktop\\Potato\\",
				"s_project_name":"Items-D",
				"s_output":"exporting..."
			},
			"name":"Scene",
			"nodes":[
				0
			]
		}
	],
	"nodes":[
		{
			"extras":{
				"currentUVSet":"map1"
			},
			"mesh":0,
			"name":"LR_Light",
			"rotation":[
				0.7071068286895752,
				0,
				0,
				0.7071068286895752
			],
			"scale":[
				0.1836530715227127,
				0.1836530715227127,
				0.1836530715227127
			],
			"translation":[
				0.19751699268817902,
				0.04014665633440018,
				0
			]
		}
	],
	"materials":[
		{
			"doubleSided":true,
			"name":"phong2.001",
			"pbrMetallicRoughness":{
				"baseColorFactor":[
					0.1889999955892563,
					0.1889999955892563,
					0.1889999955892563,
					1
				],
				"metallicFactor":0.5,
				"roughnessFactor":0.5527864098548889
			}
		},
		{
			"doubleSided":true,
			"name":"lambert4",
			"pbrMetallicRoughness":{
				"baseColorFactor":[
					0.5,
					0.4699358344078064,
					0.06999999284744263,
					1
				],
				"metallicFactor":0,
				"roughnessFactor":0.5527864098548889
			}
		},
		{
			"doubleSided":true,
			"name":"blinn2.001",
			"pbrMetallicRoughness":{
				"baseColorFactor":[
					0.5,
					0.5,
					0.5,
					1
				],
				"metallicFactor":0.5,
				"roughnessFactor":0.7487671971321106
			}
		},
		{
			"doubleSided":true,
			"name":"standardSurface1.001",
			"pbrMetallicRoughness":{
				"metallicFactor":0,
				"roughnessFactor":0.5527864098548889
			}
		}
	],
	"meshes":[
		{
			"name":"Mesh.013",
			"primitives":[
				{
					"attributes":{
						"POSITION":0,
						"TEXCOORD_0":1,
						"NORMAL":2,
						"TANGENT":3
					},
					"indices":4,
					"material":0
				},
				{
					"attributes":{
						"POSITION":5,
						"TEXCOORD_0":6,
						"NORMAL":7,
						"TANGENT":8
					},
					"indices":9,
					"material":1
				},
				{
					"attributes":{
						"POSITION":10,
						"TEXCOORD_0":11,
						"NORMAL":12,
						"TANGENT":13
					},
					"indices":14,
					"material":2
				},
				{
					"attributes":{
						"POSITION":15,
						"TEXCOORD_0":16,
						"NORMAL":17,
						"TANGENT":18
					},
					"indices":19,
					"material":3
				}
			]
		}
	],
	"accessors":[
		{
			"bufferView":0,
			"componentType":5126,
			"count":791,
			"max":[
				3.271622657775879,
				5.335752010345459,
				11.541071891784668
			],
			"min":[
				-3.2687339782714844,
				-13.378164291381836,
				-6.978740692138672
			],
			"type":"VEC3"
		},
		{
			"bufferView":1,
			"componentType":5126,
			"count":791,
			"type":"VEC2"
		},
		{
			"bufferView":2,
			"componentType":5126,
			"count":791,
			"type":"VEC3"
		},
		{
			"bufferView":3,
			"componentType":5126,
			"count":791,
			"type":"VEC4"
		},
		{
			"bufferView":4,
			"componentType":5123,
			"count":2538,
			"type":"SCALAR"
		},
		{
			"bufferView":5,
			"componentType":5126,
			"count":335,
			"max":[
				0.5985021591186523,
				4.014653205871582,
				0.12165689468383789
			],
			"min":[
				-0.59112548828125,
				2.8250250816345215,
				-0.8937540054321289
			],
			"type":"VEC3"
		},
		{
			"bufferView":6,
			"componentType":5126,
			"count":335,
			"type":"VEC2"
		},
		{
			"bufferView":7,
			"componentType":5126,
			"count":335,
			"type":"VEC3"
		},
		{
			"bufferView":8,
			"componentType":5126,
			"count":335,
			"type":"VEC4"
		},
		{
			"bufferView":9,
			"componentType":5123,
			"count":1740,
			"type":"SCALAR"
		},
		{
			"bufferView":10,
			"componentType":5126,
			"count":167,
			"max":[
				0.424285888671875,
				3.8404364585876465,
				-0.8937540054321289
			],
			"min":[
				-0.41690826416015625,
				2.9992423057556152,
				-1.9575777053833008
			],
			"type":"VEC3"
		},
		{
			"bufferView":11,
			"componentType":5126,
			"count":167,
			"type":"VEC2"
		},
		{
			"bufferView":12,
			"componentType":5126,
			"count":167,
			"type":"VEC3"
		},
		{
			"bufferView":13,
			"componentType":5126,
			"count":167,
			"type":"VEC4"
		},
		{
			"bufferView":14,
			"componentType":5123,
			"count":780,
			"type":"SCALAR"
		},
		{
			"bufferView":15,
			"componentType":5126,
			"count":202,
			"max":[
				2.0146398544311523,
				5.463178634643555,
				0.4588956832885742
			],
			"min":[
				-2.072040557861328,
				1.3764996528625488,
				-2.5123672485351562
			],
			"type":"VEC3"
		},
		{
			"bufferView":16,
			"componentType":5126,
			"count":202,
			"type":"VEC2"
		},
		{
			"bufferView":17,
			"componentType":5126,
			"count":202,
			"type":"VEC3"
		},
		{
			"bufferView":18,
			"componentType":5126,
			"count":202,
			"type":"VEC4"
		},
		{
			"bufferView":19,
			"componentType":5123,
			"count":480,
			"type":"SCALAR"
		}
	],
	"bufferViews":[
		{
			"buffer":0,
			"byteLength":9492,
			"byteOffset":0,
			"target":34962
		},
		{
			"buffer":0,
			"byteLength":6328,
			"byteOffset":9492,
			"target":34962
		},
		{
			"buffer":0,
			"byteLength":9492,
			"byteOffset":15820,
			"target":34962
		},
		{
			"buffer":0,
			"byteLength":12656,
			"byteOffset":25312,
			"target":34962
		},
		{
			"buffer":0,
			"byteLength":5076,
			"byteOffset":37968,
			"target":34963
		},
		{
			"buffer":0,
			"byteLength":4020,
			"byteOffset":43044,
			"target":34962
		},
		{
			"buffer":0,
			"byteLength":2680,
			"byteOffset":47064,
			"target":34962
		},
		{
			"buffer":0,
			"byteLength":4020,
			"byteOffset":49744,
			"target":34962
		},
		{
			"buffer":0,
			"byteLength":5360,
			"byteOffset":53764,
			"target":34962
		},
		{
			"buffer":0,
			"byteLength":3480,
			"byteOffset":59124,
			"target":34963
		},
		{
			"buffer":0,
			"byteLength":2004,
			"byteOffset":62604,
			"target":34962
		},
		{
			"buffer":0,
			"byteLength":1336,
			"byteOffset":64608,
			"target":34962
		},
		{
			"buffer":0,
			"byteLength":2004,
			"byteOffset":65944,
			"target":34962
		},
		{
			"buffer":0,
			"byteLength":2672,
			"byteOffset":67948,
			"target":34962
		},
		{
			"buffer":0,
			"byteLength":1560,
			"byteOffset":70620,
			"target":34963
		},
		{
			"buffer":0,
			"byteLength":2424,
			"byteOffset":72180,
			"target":34962
		},
		{
			"buffer":0,
			"byteLength":1616,
			"byteOffset":74604,
			"target":34962
		},
		{
			"buffer":0,
			"byteLength":2424,
			"byteOffset":76220,
			"target":34962
		},
		{
			"buffer":0,
			"byteLength":3232,
			"byteOffset":78644,
			"target":34962
		},
		{
			"buffer":0,
			"byteLength":960,
			"byteOffset":81876,
			"target":34963
		}
	],
	"buffers":[
		{
			"byteLength":82836,
			"uri":"data:application/octet-stream;base64,"
		}
	]
}
