{
	"asset":{
		"generator":"Khronos glTF Blender I/O v3.5.30",
		"version":"2.0"
	},
	"extensionsUsed":[
		"KHR_materials_specular",
		"KHR_materials_ior"
	],
	"scene":0,
	"scenes":[
		{
			"extras":{
				"b_export":1,
				"export_path":"C:\\Users\\saqib\\Desktop\\Potato\\",
				"s_project_name":"Items-B",
				"s_output":"exporting..."
			},
			"name":"Scene",
			"nodes":[
				0
			]
		}
	],
	"nodes":[
		{
			"extras":{
				"currentUVSet":"map1"
			},
			"mesh":0,
			"name":"Monokel1",
			"rotation":[
				0.7071068286895752,
				0,
				0,
				0.7071068286895752
			],
			"scale":[
				0.17169557511806488,
				0.17169557511806488,
				0.17169557511806488
			]
		}
	],
	"materials":[
		{
			"doubleSided":true,
			"extensions":{
				"KHR_materials_specular":{
					"specularColorFactor":[
						2.371357614441398,
						2.371357614441398,
						2.371357614441398
					]
				},
				"KHR_materials_ior":{
					"ior":1.4500000476837158
				}
			},
			"name":"phong2",
			"pbrMetallicRoughness":{
				"baseColorFactor":[
					0.1889999955892563,
					0.1889999955892563,
					0.1889999955892563,
					1
				],
				"metallicFactor":0.8302752375602722,
				"roughnessFactor":0.268382728099823
			}
		}
	],
	"meshes":[
		{
			"name":"Mesh.004",
			"primitives":[
				{
					"attributes":{
						"POSITION":0,
						"TEXCOORD_0":1,
						"NORMAL":2,
						"TANGENT":3
					},
					"indices":4,
					"material":0
				}
			]
		}
	],
	"accessors":[
		{
			"bufferView":0,
			"componentType":5126,
			"count":799,
			"max":[
				1.1461026668548584,
				1.6627686023712158,
				0.8670819997787476
			],
			"min":[
				-0.9887165427207947,
				-0.3963637351989746,
				-0.8784695863723755
			],
			"type":"VEC3"
		},
		{
			"bufferView":1,
			"componentType":5126,
			"count":799,
			"type":"VEC2"
		},
		{
			"bufferView":2,
			"componentType":5126,
			"count":799,
			"type":"VEC3"
		},
		{
			"bufferView":3,
			"componentType":5126,
			"count":799,
			"type":"VEC4"
		},
		{
			"bufferView":4,
			"componentType":5123,
			"count":3828,
			"type":"SCALAR"
		}
	],
	"bufferViews":[
		{
			"buffer":0,
			"byteLength":9588,
			"byteOffset":0,
			"target":34962
		},
		{
			"buffer":0,
			"byteLength":6392,
			"byteOffset":9588,
			"target":34962
		},
		{
			"buffer":0,
			"byteLength":9588,
			"byteOffset":15980,
			"target":34962
		},
		{
			"buffer":0,
			"byteLength":12784,
			"byteOffset":25568,
			"target":34962
		},
		{
			"buffer":0,
			"byteLength":7656,
			"byteOffset":38352,
			"target":34963
		}
	],
	"buffers":[
		{
			"byteLength":46008,
			"uri":"data:application/octet-stream;base64,"
		}
	]
}
