{
	"asset":{
		"generator":"Khronos glTF Blender I/O v4.2.57",
		"version":"2.0"
	},
	"extensionsUsed":[
		"KHR_materials_unlit"
	],
	"scene":0,
	"scenes":[
		{
			"name":"Scene",
			"nodes":[
				0
			]
		}
	],
	"nodes":[
		{
			"mesh":0,
			"name":"Sphere"
		}
	],
	"materials":[
		{
			"doubleSided":true,
			"extensions":{
				"KHR_materials_unlit":{}
			},
			"name":"wood.001",
			"pbrMetallicRoughness":{
				"metallicFactor":0,
				"roughnessFactor":0.9
			}
		}
	],
	"meshes":[
		{
			"name":"Sphere",
			"primitives":[
				{
					"attributes":{
						"POSITION":0,
						"NORMAL":1,
						"TEXCOORD_0":2
					},
					"indices":3,
					"material":0
				}
			]
		}
	],
	"accessors":[
		{
			"bufferView":0,
			"componentType":5126,
			"count":471,
			"max":[
				1.0841790437698364,
				1.3691649436950684,
				0.0014773085713386536
			],
			"min":[
				-3.9139456748962402,
				-1,
				-1.084179401397705
			],
			"type":"VEC3"
		},
		{
			"bufferView":1,
			"componentType":5126,
			"count":471,
			"type":"VEC3"
		},
		{
			"bufferView":2,
			"componentType":5126,
			"count":471,
			"type":"VEC2"
		},
		{
			"bufferView":3,
			"componentType":5123,
			"count":2337,
			"type":"SCALAR"
		}
	],
	"bufferViews":[
		{
			"buffer":0,
			"byteLength":5652,
			"byteOffset":0,
			"target":34962
		},
		{
			"buffer":0,
			"byteLength":5652,
			"byteOffset":5652,
			"target":34962
		},
		{
			"buffer":0,
			"byteLength":3768,
			"byteOffset":11304,
			"target":34962
		},
		{
			"buffer":0,
			"byteLength":4674,
			"byteOffset":15072,
			"target":34963
		}
	],
	"buffers":[
		{
			"byteLength":19748,
			"uri":"pipe.bin"
		}
	]
}
