{
	"asset":{
		"generator":"Khronos glTF Blender I/O v3.5.30",
		"version":"2.0"
	},
	"scene":0,
	"scenes":[
		{
			"extras":{
				"b_export":1,
				"export_path":"C:\\Users\\saqib\\OneDrive - SekII Z\u00fcrich\\Teamwork\\05_VirtualReality\\Potato-PJ-Assets\\Pfiife\\",
				"s_project_name":"Pfiife",
				"s_output":"exporting..."
			},
			"name":"Scene",
			"nodes":[
				0
			]
		}
	],
	"nodes":[
		{
			"mesh":0,
			"name":"Sphere.001"
		}
	],
	"materials":[
		{
			"doubleSided":true,
			"name":"wood.002",
			"pbrMetallicRoughness":{
				"baseColorTexture":{
					"index":0
				},
				"metallicFactor":0,
				"roughnessFactor":0.4000000059604645
			}
		}
	],
	"meshes":[
		{
			"name":"Sphere.001",
			"primitives":[
				{
					"attributes":{
						"POSITION":0,
						"TEXCOORD_0":1,
						"TEXCOORD_1":2,
						"NORMAL":3,
						"TANGENT":4
					},
					"indices":5,
					"material":0
				}
			]
		}
	],
	"textures":[
		{
			"sampler":0,
			"source":0
		}
	],
	"images":[
		{
			"bufferView":6,
			"mimeType":"image/png",
			"name":"Sphere-v2-final-v2"
		}
	],
	"accessors":[
		{
			"bufferView":0,
			"componentType":5126,
			"count":1135,
			"max":[
				1.8625867366790771,
				1.052961826324463,
				1.0836949348449707
			],
			"min":[
				-3.135538101196289,
				-1.3162031173706055,
				-1.0846638679504395
			],
			"type":"VEC3"
		},
		{
			"bufferView":1,
			"componentType":5126,
			"count":1135,
			"type":"VEC2"
		},
		{
			"bufferView":2,
			"componentType":5126,
			"count":1135,
			"type":"VEC2"
		},
		{
			"bufferView":3,
			"componentType":5126,
			"count":1135,
			"type":"VEC3"
		},
		{
			"bufferView":4,
			"componentType":5126,
			"count":1135,
			"type":"VEC4"
		},
		{
			"bufferView":5,
			"componentType":5123,
			"count":4674,
			"type":"SCALAR"
		}
	],
	"bufferViews":[
		{
			"buffer":0,
			"byteLength":13620,
			"byteOffset":0,
			"target":34962
		},
		{
			"buffer":0,
			"byteLength":9080,
			"byteOffset":13620,
			"target":34962
		},
		{
			"buffer":0,
			"byteLength":9080,
			"byteOffset":22700,
			"target":34962
		},
		{
			"buffer":0,
			"byteLength":13620,
			"byteOffset":31780,
			"target":34962
		},
		{
			"buffer":0,
			"byteLength":18160,
			"byteOffset":45400,
			"target":34962
		},
		{
			"buffer":0,
			"byteLength":9348,
			"byteOffset":63560,
			"target":34963
		},
		{
			"buffer":0,
			"byteLength":1094860,
			"byteOffset":72908
		}
	],
	"samplers":[
		{
			"magFilter":9729,
			"minFilter":9987
		}
	],
	"buffers":[
		{
			"byteLength":1167768,
			"uri":"data:application/octet-stream;base64,"
		}
	]
}
