{
	"asset":{
		"generator":"Khronos glTF Blender I/O v3.5.30",
		"version":"2.0"
	},
	"scene":0,
	"scenes":[
		{
			"extras":{
				"b_export":1,
				"export_path":"C:\\Users\\saqib\\Desktop\\Potato\\",
				"s_project_name":"Items-D",
				"s_output":"exporting..."
			},
			"name":"Scene",
			"nodes":[
				0
			]
		}
	],
	"nodes":[
		{
			"extras":{
				"currentUVSet":"map1"
			},
			"mesh":0,
			"name":"Plant",
			"rotation":[
				0.7071068286895752,
				0,
				0,
				0.7071068286895752
			],
			"scale":[
				0.1836530715227127,
				0.1836530715227127,
				0.1836530715227127
			],
			"translation":[
				0.19751699268817902,
				0.04014665633440018,
				0
			]
		}
	],
	"materials":[
		{
			"doubleSided":true,
			"name":"phong4",
			"pbrMetallicRoughness":{
				"baseColorFactor":[
					0,
					0.10700000077486038,
					0.022115124389529228,
					1
				],
				"metallicFactor":0.5,
				"roughnessFactor":0.5527864098548889
			}
		},
		{
			"doubleSided":true,
			"name":"standardSurface1.001",
			"pbrMetallicRoughness":{
				"metallicFactor":0,
				"roughnessFactor":0.5527864098548889
			}
		},
		{
			"doubleSided":true,
			"name":"lambert5",
			"pbrMetallicRoughness":{
				"baseColorFactor":[
					0.2029999941587448,
					0.09021595865488052,
					0.0087289959192276,
					1
				],
				"metallicFactor":0,
				"roughnessFactor":0.5527864098548889
			}
		}
	],
	"meshes":[
		{
			"name":"Mesh.012",
			"primitives":[
				{
					"attributes":{
						"POSITION":0,
						"TEXCOORD_0":1,
						"NORMAL":2,
						"TANGENT":3
					},
					"indices":4,
					"material":0
				},
				{
					"attributes":{
						"POSITION":5,
						"TEXCOORD_0":6,
						"NORMAL":7,
						"TANGENT":8
					},
					"indices":9,
					"material":1
				},
				{
					"attributes":{
						"POSITION":10,
						"TEXCOORD_0":11,
						"NORMAL":12,
						"TANGENT":13
					},
					"indices":14,
					"material":2
				}
			]
		}
	],
	"accessors":[
		{
			"bufferView":0,
			"componentType":5126,
			"count":5562,
			"max":[
				1.7728281021118164,
				1.354578971862793,
				3.0230352878570557
			],
			"min":[
				-1.537698745727539,
				-1.648889183998108,
				-6.225001811981201
			],
			"type":"VEC3"
		},
		{
			"bufferView":1,
			"componentType":5126,
			"count":5562,
			"type":"VEC2"
		},
		{
			"bufferView":2,
			"componentType":5126,
			"count":5562,
			"type":"VEC3"
		},
		{
			"bufferView":3,
			"componentType":5126,
			"count":5562,
			"type":"VEC4"
		},
		{
			"bufferView":4,
			"componentType":5123,
			"count":28992,
			"type":"SCALAR"
		},
		{
			"bufferView":5,
			"componentType":5126,
			"count":1287,
			"max":[
				1.9289016723632812,
				1.6854007244110107,
				5.782112121582031
			],
			"min":[
				-1.6875543594360352,
				-1.9310575723648071,
				2.517646074295044
			],
			"type":"VEC3"
		},
		{
			"bufferView":6,
			"componentType":5126,
			"count":1287,
			"type":"VEC2"
		},
		{
			"bufferView":7,
			"componentType":5126,
			"count":1287,
			"type":"VEC3"
		},
		{
			"bufferView":8,
			"componentType":5126,
			"count":1287,
			"type":"VEC4"
		},
		{
			"bufferView":9,
			"componentType":5123,
			"count":4500,
			"type":"SCALAR"
		},
		{
			"bufferView":10,
			"componentType":5126,
			"count":60,
			"max":[
				1.4673576354980469,
				1.2238545417785645,
				2.8878653049468994
			],
			"min":[
				-1.2260093688964844,
				-1.4695124626159668,
				2.8878653049468994
			],
			"type":"VEC3"
		},
		{
			"bufferView":11,
			"componentType":5126,
			"count":60,
			"type":"VEC2"
		},
		{
			"bufferView":12,
			"componentType":5126,
			"count":60,
			"type":"VEC3"
		},
		{
			"bufferView":13,
			"componentType":5126,
			"count":60,
			"type":"VEC4"
		},
		{
			"bufferView":14,
			"componentType":5123,
			"count":60,
			"type":"SCALAR"
		}
	],
	"bufferViews":[
		{
			"buffer":0,
			"byteLength":66744,
			"byteOffset":0,
			"target":34962
		},
		{
			"buffer":0,
			"byteLength":44496,
			"byteOffset":66744,
			"target":34962
		},
		{
			"buffer":0,
			"byteLength":66744,
			"byteOffset":111240,
			"target":34962
		},
		{
			"buffer":0,
			"byteLength":88992,
			"byteOffset":177984,
			"target":34962
		},
		{
			"buffer":0,
			"byteLength":57984,
			"byteOffset":266976,
			"target":34963
		},
		{
			"buffer":0,
			"byteLength":15444,
			"byteOffset":324960,
			"target":34962
		},
		{
			"buffer":0,
			"byteLength":10296,
			"byteOffset":340404,
			"target":34962
		},
		{
			"buffer":0,
			"byteLength":15444,
			"byteOffset":350700,
			"target":34962
		},
		{
			"buffer":0,
			"byteLength":20592,
			"byteOffset":366144,
			"target":34962
		},
		{
			"buffer":0,
			"byteLength":9000,
			"byteOffset":386736,
			"target":34963
		},
		{
			"buffer":0,
			"byteLength":720,
			"byteOffset":395736,
			"target":34962
		},
		{
			"buffer":0,
			"byteLength":480,
			"byteOffset":396456,
			"target":34962
		},
		{
			"buffer":0,
			"byteLength":720,
			"byteOffset":396936,
			"target":34962
		},
		{
			"buffer":0,
			"byteLength":960,
			"byteOffset":397656,
			"target":34962
		},
		{
			"buffer":0,
			"byteLength":120,
			"byteOffset":398616,
			"target":34963
		}
	],
	"buffers":[
		{
			"byteLength":398736,
			"uri":"data:application/octet-stream;base64,"
		}
	]
}
