{
	"asset":{
		"generator":"Khronos glTF Blender I/O v3.5.30",
		"version":"2.0"
	},
	"scene":0,
	"scenes":[
		{
			"extras":{
				"b_settings":0,
				"b_export":1,
				"export_path":"C:\\Users\\saqib\\Desktop\\Potato\\",
				"s_output":"exporting...",
				"b_export_single_model":1,
				"s_project_name":"Potato"
			},
			"name":"Scene",
			"nodes":[
				0
			]
		}
	],
	"nodes":[
		{
			"extras":{
				"currentUVSet":"map1"
			},
			"mesh":0,
			"name":"UV__Potato_v1",
			"rotation":[
				0.7071068286895752,
				0,
				0,
				0.7071068286895752
			],
			"scale":[
				1,
				2,
				1
			],
			"translation":[
				0,
				0.02522149309515953,
				0.007752865087240934
			]
		}
	],
	"materials":[
		{
			"doubleSided":true,
			"name":"standardSurface1",
			"normalTexture":{
				"index":0
			},
			"pbrMetallicRoughness":{
				"baseColorTexture":{
					"index":1
				},
				"metallicFactor":0,
				"roughnessFactor":0.5527864098548889
			}
		}
	],
	"meshes":[
		{
			"name":"Mesh",
			"primitives":[
				{
					"attributes":{
						"POSITION":0,
						"TEXCOORD_0":1,
						"NORMAL":2,
						"TANGENT":3
					},
					"indices":4,
					"material":0
				}
			]
		}
	],
	"textures":[
		{
			"sampler":0,
			"source":0
		},
		{
			"sampler":0,
			"source":1
		}
	],
	"images":[
		{
			"bufferView":5,
			"mimeType":"image/png",
			"name":"standardSurface1_normal"
		},
		{
			"bufferView":6,
			"mimeType":"image/jpeg",
			"name":"standardSurface1_Base_color"
		}
	],
	"accessors":[
		{
			"bufferView":0,
			"componentType":5126,
			"count":955,
			"max":[
				0.4818766415119171,
				0.42244404554367065,
				0.5915758013725281
			],
			"min":[
				-0.48187968134880066,
				-0.41649335622787476,
				-0.6352349519729614
			],
			"type":"VEC3"
		},
		{
			"bufferView":1,
			"componentType":5126,
			"count":955,
			"type":"VEC2"
		},
		{
			"bufferView":2,
			"componentType":5126,
			"count":955,
			"type":"VEC3"
		},
		{
			"bufferView":3,
			"componentType":5126,
			"count":955,
			"type":"VEC4"
		},
		{
			"bufferView":4,
			"componentType":5123,
			"count":4836,
			"type":"SCALAR"
		}
	],
	"bufferViews":[
		{
			"buffer":0,
			"byteLength":11460,
			"byteOffset":0,
			"target":34962
		},
		{
			"buffer":0,
			"byteLength":7640,
			"byteOffset":11460,
			"target":34962
		},
		{
			"buffer":0,
			"byteLength":11460,
			"byteOffset":19100,
			"target":34962
		},
		{
			"buffer":0,
			"byteLength":15280,
			"byteOffset":30560,
			"target":34962
		},
		{
			"buffer":0,
			"byteLength":9672,
			"byteOffset":45840,
			"target":34963
		},
		{
			"buffer":0,
			"byteLength":1863917,
			"byteOffset":55512
		},
		{
			"buffer":0,
			"byteLength":241800,
			"byteOffset":1919432
		}
	],
	"samplers":[
		{
			"magFilter":9729,
			"minFilter":9987
		}
	],
	"buffers":[
		{
			"byteLength":2161232,
			"uri":"data:application/octet-stream;base64,"
		}
	]
}
