{
	"asset":{
		"generator":"Khronos glTF Blender I/O v3.5.30",
		"version":"2.0"
	},
	"extensionsUsed":[
		"KHR_materials_specular",
		"KHR_materials_ior"
	],
	"scene":0,
	"scenes":[
		{
			"extras":{
				"b_export":1,
				"export_path":"C:\\Users\\saqib\\OneDrive - SekII Z\u00fcrich\\Teamwork\\05_VirtualReality\\Potato-PJ-Assets\\",
				"s_project_name":"Furniture-UV-edit",
				"s_output":"exporting..."
			},
			"name":"Scene",
			"nodes":[
				0
			]
		}
	],
	"nodes":[
		{
			"extras":{
				"currentUVSet":"map1"
			},
			"mesh":0,
			"name":"Table.001",
			"rotation":[
				0.7071068286895752,
				0,
				0,
				0.7071068286895752
			],
			"scale":[
				0.18032920360565186,
				0.18032920360565186,
				0.18032920360565186
			],
			"translation":[
				0.22529110312461853,
				0.044927727431058884,
				0.013834902085363865
			]
		}
	],
	"materials":[
		{
			"doubleSided":true,
			"extensions":{
				"KHR_materials_specular":{
					"specularColorFactor":[
						2.371357614441398,
						2.371357614441398,
						2.371357614441398
					]
				},
				"KHR_materials_ior":{
					"ior":1.4500000476837158
				}
			},
			"name":"phong6",
			"normalTexture":{
				"index":0
			},
			"pbrMetallicRoughness":{
				"baseColorTexture":{
					"index":1
				},
				"metallicFactor":0,
				"roughnessFactor":0.9777864217758179
			}
		}
	],
	"meshes":[
		{
			"name":"Mesh.050",
			"primitives":[
				{
					"attributes":{
						"POSITION":0,
						"TEXCOORD_0":1,
						"NORMAL":2,
						"TANGENT":3
					},
					"indices":4,
					"material":0
				}
			]
		}
	],
	"textures":[
		{
			"sampler":0,
			"source":0
		},
		{
			"sampler":0,
			"source":1
		}
	],
	"images":[
		{
			"bufferView":5,
			"mimeType":"image/png",
			"name":"phong6_Normal_OpenGL"
		},
		{
			"bufferView":6,
			"mimeType":"image/png",
			"name":"phong6_Base_color"
		}
	],
	"accessors":[
		{
			"bufferView":0,
			"componentType":5126,
			"count":872,
			"max":[
				4.799757480621338,
				3.754988193511963,
				3.9391112327575684
			],
			"min":[
				-4.760588645935059,
				-5.8210320472717285,
				-0.9176349639892578
			],
			"type":"VEC3"
		},
		{
			"bufferView":1,
			"componentType":5126,
			"count":872,
			"type":"VEC2"
		},
		{
			"bufferView":2,
			"componentType":5126,
			"count":872,
			"type":"VEC3"
		},
		{
			"bufferView":3,
			"componentType":5126,
			"count":872,
			"type":"VEC4"
		},
		{
			"bufferView":4,
			"componentType":5123,
			"count":4188,
			"type":"SCALAR"
		}
	],
	"bufferViews":[
		{
			"buffer":0,
			"byteLength":10464,
			"byteOffset":0,
			"target":34962
		},
		{
			"buffer":0,
			"byteLength":6976,
			"byteOffset":10464,
			"target":34962
		},
		{
			"buffer":0,
			"byteLength":10464,
			"byteOffset":17440,
			"target":34962
		},
		{
			"buffer":0,
			"byteLength":13952,
			"byteOffset":27904,
			"target":34962
		},
		{
			"buffer":0,
			"byteLength":8376,
			"byteOffset":41856,
			"target":34963
		},
		{
			"buffer":0,
			"byteLength":1286656,
			"byteOffset":50232
		},
		{
			"buffer":0,
			"byteLength":693450,
			"byteOffset":1336888
		}
	],
	"samplers":[
		{
			"magFilter":9729,
			"minFilter":9987
		}
	],
	"buffers":[
		{
			"byteLength":2030340,
			"uri":"data:application/octet-stream;base64,"
		}
	]
}
