{
	"asset":{
		"generator":"Khronos glTF Blender I/O v3.5.30",
		"version":"2.0"
	},
	"scene":0,
	"scenes":[
		{
			"extras":{
				"b_export":1,
				"export_path":"C:\\Users\\saqib\\Desktop\\Potato\\",
				"s_project_name":"Items-C",
				"s_output":"exporting..."
			},
			"name":"Scene",
			"nodes":[
				0
			]
		}
	],
	"nodes":[
		{
			"extras":{
				"currentUVSet":"map1"
			},
			"mesh":0,
			"name":"table",
			"rotation":[
				0.7071068286895752,
				0,
				0,
				0.7071068286895752
			],
			"scale":[
				0.18226732313632965,
				0.18226732313632965,
				0.18226732313632965
			]
		}
	],
	"materials":[
		{
			"doubleSided":true,
			"name":"Material.002",
			"pbrMetallicRoughness":{
				"baseColorFactor":[
					0.13905873894691467,
					0.033128511160612106,
					0.007320850156247616,
					1
				],
				"metallicFactor":0,
				"roughnessFactor":0.5
			}
		}
	],
	"meshes":[
		{
			"name":"Mesh.006",
			"primitives":[
				{
					"attributes":{
						"POSITION":0,
						"TEXCOORD_0":1,
						"NORMAL":2
					},
					"indices":3,
					"material":0
				}
			]
		}
	],
	"accessors":[
		{
			"bufferView":0,
			"componentType":5126,
			"count":863,
			"max":[
				4.6714982986450195,
				3.866905450820923,
				3.898752212524414
			],
			"min":[
				-4.888847827911377,
				-5.709115028381348,
				-0.957993745803833
			],
			"type":"VEC3"
		},
		{
			"bufferView":1,
			"componentType":5126,
			"count":863,
			"type":"VEC2"
		},
		{
			"bufferView":2,
			"componentType":5126,
			"count":863,
			"type":"VEC3"
		},
		{
			"bufferView":3,
			"componentType":5123,
			"count":3900,
			"type":"SCALAR"
		}
	],
	"bufferViews":[
		{
			"buffer":0,
			"byteLength":10356,
			"byteOffset":0,
			"target":34962
		},
		{
			"buffer":0,
			"byteLength":6904,
			"byteOffset":10356,
			"target":34962
		},
		{
			"buffer":0,
			"byteLength":10356,
			"byteOffset":17260,
			"target":34962
		},
		{
			"buffer":0,
			"byteLength":7800,
			"byteOffset":27616,
			"target":34963
		}
	],
	"buffers":[
		{
			"byteLength":35416,
			"uri":"data:application/octet-stream;base64,"
		}
	]
}
