{
	"asset":{
		"generator":"Khronos glTF Blender I/O v3.5.30",
		"version":"2.0"
	},
	"scene":0,
	"scenes":[
		{
			"extras":{
				"b_export":1,
				"export_path":"C:\\Users\\saqib\\Desktop\\Potato\\",
				"s_project_name":"Items-C",
				"s_output":"exporting..."
			},
			"name":"Scene",
			"nodes":[
				0
			]
		}
	],
	"nodes":[
		{
			"extras":{
				"currentUVSet":"map1"
			},
			"mesh":0,
			"name":"sideboard",
			"rotation":[
				0.7071068286895752,
				0,
				0,
				0.7071068286895752
			],
			"scale":[
				0.18226732313632965,
				0.18226732313632965,
				0.18226732313632965
			]
		}
	],
	"materials":[
		{
			"doubleSided":true,
			"name":"Material.002",
			"pbrMetallicRoughness":{
				"baseColorFactor":[
					0.13905873894691467,
					0.033128511160612106,
					0.007320850156247616,
					1
				],
				"metallicFactor":0,
				"roughnessFactor":0.5
			}
		}
	],
	"meshes":[
		{
			"name":"Mesh.007",
			"primitives":[
				{
					"attributes":{
						"POSITION":0,
						"TEXCOORD_0":1,
						"NORMAL":2,
						"TANGENT":3
					},
					"indices":4,
					"material":0
				}
			]
		}
	],
	"accessors":[
		{
			"bufferView":0,
			"componentType":5126,
			"count":1230,
			"max":[
				11.795294761657715,
				1.9734952449798584,
				2.7758045196533203
			],
			"min":[
				-12.659478187561035,
				-2.25943660736084,
				-2.074204683303833
			],
			"type":"VEC3"
		},
		{
			"bufferView":1,
			"componentType":5126,
			"count":1230,
			"type":"VEC2"
		},
		{
			"bufferView":2,
			"componentType":5126,
			"count":1230,
			"type":"VEC3"
		},
		{
			"bufferView":3,
			"componentType":5126,
			"count":1230,
			"type":"VEC4"
		},
		{
			"bufferView":4,
			"componentType":5123,
			"count":2400,
			"type":"SCALAR"
		}
	],
	"bufferViews":[
		{
			"buffer":0,
			"byteLength":14760,
			"byteOffset":0,
			"target":34962
		},
		{
			"buffer":0,
			"byteLength":9840,
			"byteOffset":14760,
			"target":34962
		},
		{
			"buffer":0,
			"byteLength":14760,
			"byteOffset":24600,
			"target":34962
		},
		{
			"buffer":0,
			"byteLength":19680,
			"byteOffset":39360,
			"target":34962
		},
		{
			"buffer":0,
			"byteLength":4800,
			"byteOffset":59040,
			"target":34963
		}
	],
	"buffers":[
		{
			"byteLength":63840,
			"uri":"data:application/octet-stream;base64,"
		}
	]
}
